<svg width="156" height="48" viewBox="0 0 156 48" fill="none" xmlns="http://www.w3.org/2000/svg">
<path d="M29.4377 0.721961C29.4119 0.721961 29.3991 0.709068 29.3733 0.709068C27.4652 0.232059 25.5572 0 23.662 0H23.6492C13.0389 0 3.38269 7.20671 0.701124 17.9846C-2.44456 30.6704 5.29073 43.511 17.9766 46.6567C19.8846 47.1337 21.8056 47.3529 23.6878 47.3529C34.311 47.3529 43.9672 40.1462 46.6488 29.3683C49.7944 16.7082 42.0978 3.89343 29.4377 0.721961ZM44.8052 28.9171C42.3943 38.6507 33.7179 45.4448 23.7007 45.4448C21.9345 45.4448 20.1683 45.2257 18.4407 44.8002C12.794 43.4079 8.03676 39.8883 5.04578 34.9119C2.0548 29.9356 1.16524 24.0825 2.57049 18.4358C4.98132 8.7151 13.6577 1.92093 23.6749 1.92093C25.4283 1.92093 27.1945 2.1401 28.9349 2.56554H28.9607H28.9865C40.5766 5.49206 47.6801 17.3013 44.8052 28.9171Z" fill="white"/>
<path d="M28.6128 20.5114C27.9296 23.2317 23.7912 21.8393 22.4375 21.5041L23.6236 16.7469C24.9515 17.0692 29.2832 17.7009 28.5871 20.5114H28.6128ZM27.878 28.1951C27.1431 31.1603 22.1539 29.5488 20.5424 29.1492L21.8574 23.8892C23.4689 24.3017 28.6386 25.101 27.878 28.1951ZM33.3185 20.5501C33.7439 17.6494 31.5394 16.1023 28.5613 15.058L29.5411 11.1388L27.1302 10.5458L26.1762 14.3619C25.5445 14.2072 24.8999 14.0524 24.2682 13.9106L25.2222 10.043L22.8243 9.44995L21.8445 13.3692L20.3232 13.034L17.0228 12.2089L16.3911 14.7615C16.3911 14.7615 18.0413 15.1612 18.1186 15.1999C18.6472 15.303 19.2918 15.8831 19.2274 16.5535L16.5458 27.2927C16.404 27.7568 15.9141 28.0018 15.45 27.8599C15.3984 27.8471 13.7095 27.4345 13.7095 27.4345L12.5234 30.1547L15.6304 30.9283L17.3322 31.3666L16.3524 35.3245L18.7375 35.9175L19.7173 31.9983C20.3619 32.1788 20.9936 32.3335 21.6124 32.4882L20.6455 36.4203L23.0305 37.0134L24.0103 33.0555C28.0843 33.829 31.1397 33.5196 32.4289 29.8324C33.4732 26.8673 32.3774 25.1655 30.2373 24.0439C31.823 23.6958 32.9833 22.7031 33.3185 20.5501Z" fill="white"/>
<path d="M68.449 16.4889C69.9316 16.4889 71.2079 16.7468 72.2908 17.2753C73.3738 17.8039 74.2634 18.513 74.9724 19.4025C75.6815 20.2921 76.2101 21.3493 76.5453 22.5482C76.8805 23.7472 77.0481 25.0493 77.0481 26.4417C77.0481 28.5689 76.6484 30.58 75.862 32.4752C75.0756 34.3703 74.0055 36.0205 72.6518 37.4258C71.2982 38.831 69.6866 39.9397 67.8431 40.7519C65.9866 41.5641 63.9883 41.9767 61.8224 41.9767C61.5388 41.9767 61.0618 41.9638 60.3656 41.9509C59.6694 41.938 58.883 41.8607 57.9806 41.7446C57.091 41.6157 56.137 41.4352 55.1314 41.1903C54.1258 40.9453 53.1847 40.6101 52.2822 40.1718L60.2883 6.52328L67.4563 5.41455L64.5813 17.3527C65.2002 17.0691 65.819 16.8628 66.4378 16.7081C67.0824 16.5663 67.7399 16.4889 68.449 16.4889ZM62.4412 36.2913C63.5242 36.2913 64.5427 36.0334 65.4967 35.5048C66.4507 34.9763 67.2758 34.2801 67.972 33.4034C68.6682 32.5267 69.2096 31.5341 69.6093 30.4253C70.0089 29.3166 70.2152 28.1563 70.2152 26.9573C70.2152 25.4747 69.9703 24.3144 69.4804 23.4893C68.9905 22.6514 68.0751 22.2388 66.7472 22.2388C66.3089 22.2388 65.7545 22.3162 65.0584 22.4709C64.3622 22.6256 63.7434 22.9479 63.189 23.4378L60.1335 36.1237C60.314 36.1494 60.4816 36.1881 60.6235 36.2139C60.7653 36.2397 60.9071 36.2655 61.0618 36.2784C61.2165 36.2913 61.397 36.3041 61.6161 36.3041C61.8224 36.2913 62.0932 36.2913 62.4412 36.2913Z" fill="white"/>
<path d="M88.0711 41.7964C85.8794 41.7964 84.1648 41.5127 82.9142 40.9455C81.6637 40.3782 80.7742 39.5918 80.2327 38.612C79.6912 37.6193 79.4334 36.4977 79.4463 35.2085C79.4592 33.9322 79.6396 32.5656 79.9748 31.1088L85.8537 6.53634L93.0217 5.42761L86.5885 32.0757C86.4596 32.6301 86.3951 33.1457 86.3822 33.597C86.3693 34.0611 86.4467 34.4736 86.6401 34.8217C86.8206 35.1827 87.1429 35.4663 87.5941 35.6726C88.0453 35.8918 88.6642 36.0336 89.4635 36.0852L88.0711 41.7964Z" fill="white"/>
<path d="M98.4878 41.3322H91.6421L97.4307 16.9918H104.328L98.4878 41.3322Z" fill="white"/>
<path d="M109.408 18.1006C109.936 17.9459 110.516 17.7654 111.148 17.572C111.78 17.3657 112.489 17.1852 113.275 17.0176C114.062 16.85 114.938 16.7082 115.918 16.6051C116.885 16.502 117.994 16.4375 119.232 16.4375C122.867 16.4375 125.368 17.4818 126.722 19.5832C128.076 21.6846 128.308 24.5467 127.418 28.1951L124.272 41.3322H117.375L120.43 28.4659C120.611 27.6666 120.766 26.8801 120.869 26.1324C120.972 25.3718 120.972 24.7143 120.843 24.147C120.714 23.5798 120.43 23.1156 119.992 22.7547C119.541 22.4066 118.858 22.2261 117.929 22.2261C117.04 22.2261 116.125 22.3163 115.196 22.5097L110.71 41.3451H103.812L109.408 18.1006Z" fill="white"/>
<path d="M138.789 25.7842C140.645 24.3016 142.386 22.7932 144.023 21.2462C145.66 19.6991 147.066 18.281 148.239 16.9918H156C154.272 18.8998 152.48 20.7821 150.611 22.6128C148.741 24.4434 146.601 26.403 144.203 28.4658C144.848 29.2651 145.506 30.1933 146.176 31.2376C146.833 32.2819 147.478 33.3777 148.071 34.5251C148.677 35.6725 149.231 36.8199 149.734 37.9931C150.237 39.1663 150.662 40.275 151.011 41.3193H143.327C143.043 40.52 142.708 39.6433 142.283 38.6764C141.87 37.7224 141.406 36.7683 140.89 35.8272C140.387 34.8861 139.846 33.9707 139.292 33.0683C138.737 32.1787 138.183 31.3665 137.628 30.6575L135.037 41.3064H128.191L136.52 6.51046L143.688 5.40173L138.789 25.7842Z" fill="white"/>
<path d="M106.739 9.6432C106.739 10.2878 106.61 10.8808 106.378 11.4352C106.133 11.9896 105.798 12.4795 105.386 12.892C104.96 13.3046 104.47 13.6269 103.903 13.8718C103.336 14.1168 102.743 14.2328 102.098 14.2328C101.453 14.2328 100.86 14.1168 100.293 13.8718C99.7259 13.6269 99.236 13.3046 98.8234 12.892C98.4109 12.4795 98.0886 11.9896 97.8436 11.4352C97.5986 10.8808 97.4697 10.2878 97.4697 9.6432C97.4697 9.02437 97.5858 8.43133 97.8307 7.86408C98.0757 7.29682 98.398 6.80692 98.8105 6.39437C99.2231 5.98182 99.713 5.65952 100.28 5.41457C100.847 5.16962 101.441 5.05359 102.085 5.05359C102.73 5.05359 103.323 5.16962 103.89 5.41457C104.457 5.65952 104.947 5.98182 105.373 6.39437C105.798 6.80692 106.12 7.29682 106.365 7.86408C106.623 8.43133 106.739 9.02437 106.739 9.6432Z" fill="white"/>
</svg>
