<svg width="173" height="77" viewBox="0 0 173 77" fill="none" xmlns="http://www.w3.org/2000/svg">
<g clip-path="url(#clip0_266_49)">
<path d="M11.9745 64.9132L11.7168 65.9727H9.65512L8.25206 71.8426H6.97785L8.38091 65.9727H6.33359L6.57698 64.9132H11.9745Z" fill="white"/>
<path d="M17.4292 64.9132H18.6891L17.0284 71.8426H15.7685L16.5129 68.7645H13.6925L12.948 71.8426H11.6738L13.3346 64.9132H14.5945L13.9359 67.6907H16.7707L17.4292 64.9132Z" fill="white"/>
<path d="M19.0327 71.8426L20.6935 64.9132H24.9886L24.7452 65.9583H21.6957L21.2805 67.6907H23.9864L23.743 68.7215H21.0514L20.5503 70.7831H23.8289L23.5855 71.8283H19.0327V71.8426Z" fill="white"/>
<path d="M27.9092 71.8426L29.57 64.9132H33.8651L33.6217 65.9583H30.5722L30.157 67.6907H32.8629L32.6195 68.7215H29.9279L29.4268 70.7831H32.7054L32.462 71.8283H27.9092V71.8426Z" fill="white"/>
<path d="M37.0435 71.8426H35.8552C35.6404 70.7688 35.4686 69.6521 35.2968 68.5067C35.1393 67.3614 34.9961 66.1588 34.8816 64.9132H36.2131C36.2847 65.8867 36.3706 66.846 36.4565 67.7766C36.5424 68.7072 36.6426 69.5662 36.7571 70.3393C37.0005 69.9671 37.2582 69.5662 37.5159 69.1224C37.7736 68.6786 38.0457 68.2347 38.3177 67.7623C38.5897 67.2898 38.8474 66.8174 39.1051 66.3306C39.3628 65.8438 39.5919 65.3713 39.821 64.9132H41.1954C40.5654 66.0872 39.9212 67.2612 39.234 68.4208C38.5611 69.5948 37.8309 70.7259 37.0435 71.8426Z" fill="white"/>
<path d="M40.8088 71.8426L42.4696 64.9132H46.7647L46.5213 65.9583H43.4718L43.0566 67.6907H45.7625L45.5191 68.7215H42.8275L42.3264 70.7831H45.605L45.3616 71.8283H40.8088V71.8426Z" fill="white"/>
<path d="M50.4298 64.8559C51.2602 64.8559 51.8902 65.0277 52.3197 65.3713C52.7492 65.7149 52.9639 66.173 52.9639 66.7314C52.9639 66.9891 52.9353 67.2325 52.8637 67.4616C52.7921 67.6906 52.6776 67.9054 52.5344 68.1058C52.3912 68.3063 52.1908 68.4781 51.9617 68.6356C51.7327 68.793 51.4463 68.9219 51.1027 69.0221C51.1886 69.1796 51.2888 69.3657 51.3891 69.5805C51.4893 69.7952 51.5895 70.0243 51.704 70.282C51.8186 70.5397 51.9188 70.7974 52.019 71.0694C52.1192 71.3415 52.2051 71.6135 52.291 71.8855H50.9596C50.8737 71.6421 50.8021 71.3987 50.7018 71.1553C50.6159 70.912 50.53 70.6686 50.4298 70.4395C50.3296 70.2104 50.2437 69.9957 50.1435 69.7952C50.0433 69.5948 49.9574 69.4087 49.8571 69.2512C49.7999 69.2512 49.7283 69.2655 49.6424 69.2655C49.5565 69.2655 49.4849 69.2655 49.4133 69.2655H48.8406L48.2107 71.8998H46.9508L48.5829 65.0706C48.8979 64.9991 49.2272 64.9561 49.5565 64.9418C49.8571 64.8559 50.1578 64.8559 50.4298 64.8559ZM51.6897 66.8746C51.6897 66.5023 51.5609 66.2589 51.2888 66.1158C51.0168 65.9726 50.6589 65.9153 50.2151 65.9153C50.1149 65.9153 50.0146 65.9153 49.9144 65.9297C49.8142 65.9297 49.6997 65.944 49.5994 65.9583L49.0554 68.2204H49.6138C49.9144 68.2204 50.1864 68.1917 50.4441 68.1488C50.7018 68.0915 50.9166 68.0199 51.1027 67.9197C51.2888 67.8195 51.432 67.6763 51.5322 67.5045C51.6325 67.3184 51.6897 67.1036 51.6897 66.8746Z" fill="white"/>
<path d="M56.3571 67.977C56.7722 67.4759 57.1731 66.9748 57.5597 66.4737C57.9462 65.9726 58.3185 65.4572 58.6478 64.9132H60.0651C59.8074 65.2854 59.5497 65.6434 59.292 65.987C59.0343 66.3306 58.7623 66.6742 58.5046 67.0178C58.2326 67.3614 57.9605 67.705 57.6742 68.0486C57.3879 68.3922 57.0872 68.7358 56.7866 69.0937L56.128 71.8569H54.8681L55.5267 69.0937C55.2546 68.3922 55.0113 67.705 54.7822 67.0178C54.5531 66.3306 54.3527 65.629 54.1522 64.9275H55.498C55.6126 65.4429 55.7414 65.9583 55.8846 66.4594C56.0278 66.9748 56.1852 67.4759 56.3571 67.977Z" fill="white"/>
<path d="M66.3073 67.5761C66.3073 68.1917 66.2071 68.7787 66.0067 69.3085C65.8062 69.8382 65.5056 70.2963 65.119 70.6829C64.7325 71.0694 64.2314 71.3701 63.6444 71.5992C63.0574 71.8139 62.3702 71.9285 61.5971 71.9285C61.3107 71.9285 61.0101 71.9142 60.6521 71.8855C60.3085 71.8569 59.9792 71.8139 59.6929 71.7423L61.2964 65.042C61.6257 64.9704 61.955 64.9275 62.2843 64.8988C62.6136 64.8702 62.9285 64.8702 63.2006 64.8702C63.7017 64.8702 64.1598 64.9418 64.5464 65.0706C64.9329 65.1995 65.2622 65.3856 65.5199 65.6147C65.7776 65.8438 65.978 66.1444 66.1069 66.4737C66.2501 66.7887 66.3073 67.1609 66.3073 67.5761ZM61.1819 70.8117C61.2535 70.8261 61.3394 70.8404 61.4396 70.8404C61.5398 70.8404 61.683 70.8404 61.8977 70.8404C62.3702 70.8404 62.814 70.7688 63.2006 70.6113C63.5871 70.4538 63.9164 70.2391 64.1884 69.9527C64.4605 69.6664 64.6609 69.3371 64.8184 68.9362C64.9615 68.5354 65.0331 68.0915 65.0331 67.6191C65.0331 67.0893 64.89 66.6741 64.5893 66.3735C64.2886 66.0728 63.8019 65.9153 63.1147 65.9153C62.9429 65.9153 62.7997 65.9153 62.6995 65.9297C62.5992 65.9297 62.4847 65.944 62.3702 65.9583L61.1819 70.8117Z" fill="white"/>
<path d="M71.5903 71.8426C71.576 71.5563 71.5473 71.2843 71.533 71.0122C71.5044 70.7402 71.4758 70.4682 71.4614 70.2105H68.641C68.4978 70.4682 68.3547 70.7402 68.1972 71.0122C68.054 71.2843 67.8965 71.5563 67.739 71.8569H66.3932C66.7941 71.1554 67.195 70.4825 67.5529 69.8526C67.9252 69.2226 68.2831 68.6356 68.6267 68.063C68.9703 67.4903 69.3282 66.9605 69.6718 66.4451C70.0154 65.9297 70.359 65.4286 70.7026 64.9275H71.8766C72.0914 65.9154 72.2775 67.0035 72.435 68.1775C72.5925 69.3515 72.7357 70.5827 72.8788 71.8426H71.5903ZM71.0033 66.2447C70.7456 66.6456 70.4736 67.0751 70.1586 67.5762C69.8436 68.063 69.5143 68.607 69.1707 69.2226H71.3469C71.304 68.7502 71.261 68.2634 71.2037 67.7623C71.1465 67.2612 71.0749 66.7458 71.0033 66.2447Z" fill="white"/>
<path d="M76.2147 67.977C76.6299 67.4759 77.0307 66.9748 77.4173 66.4737C77.8039 65.9726 78.1761 65.4572 78.5054 64.9132H79.9228C79.6651 65.2854 79.4074 65.6434 79.1496 65.987C78.8919 66.3306 78.6199 66.6742 78.3622 67.0178C78.0902 67.3614 77.8182 67.705 77.5318 68.0486C77.2455 68.3922 76.9448 68.7358 76.6442 69.0937L75.9856 71.8569H74.7257L75.3843 69.0937C75.1123 68.3922 74.8689 67.705 74.6398 67.0178C74.4107 66.3306 74.2103 65.629 74.0099 64.9275H75.3557C75.4702 65.4429 75.599 65.9583 75.7422 66.4594C75.8854 66.9748 76.0429 67.4759 76.2147 67.977Z" fill="white"/>
<path d="M84.404 71.9285C84.0604 71.9285 83.7025 71.9141 83.3302 71.8855C82.958 71.8569 82.6144 71.8139 82.328 71.7423L83.9315 65.042C84.2322 64.9704 84.5472 64.9275 84.8765 64.8988C85.2057 64.8702 85.5493 64.8559 85.8786 64.8559C86.165 64.8559 86.437 64.8702 86.7377 64.9131C87.024 64.9561 87.2817 65.0277 87.5251 65.1422C87.7542 65.2568 87.9546 65.4142 88.0978 65.629C88.2409 65.8438 88.3268 66.0871 88.3268 66.4164C88.3268 66.7744 88.2266 67.1036 88.0262 67.4186C87.8257 67.7336 87.4965 67.9913 87.0383 68.1774C87.3247 68.292 87.5537 68.4638 87.7112 68.6928C87.8687 68.9219 87.9546 69.1796 87.9546 69.4803C87.9546 70.2534 87.6539 70.869 87.0383 71.2842C86.437 71.7137 85.5494 71.9285 84.404 71.9285ZM84.2895 68.7215L83.774 70.8547C83.8743 70.869 83.9888 70.8833 84.1463 70.8833C84.3038 70.8976 84.4756 70.8976 84.6617 70.8976C84.8765 70.8976 85.1055 70.8833 85.3489 70.8404C85.5923 70.8117 85.8071 70.7402 85.9932 70.6542C86.1936 70.5683 86.3511 70.4252 86.48 70.2534C86.6088 70.0816 86.6804 69.8525 86.6804 69.5805C86.6804 69.3228 86.5802 69.1223 86.3941 68.9505C86.2079 68.7787 85.8786 68.7215 85.4348 68.7215H84.2895ZM84.5328 67.7479H85.4921C85.6925 67.7479 85.893 67.7336 86.0934 67.6906C86.2795 67.6477 86.4513 67.5904 86.5945 67.4902C86.7377 67.4043 86.8522 67.2898 86.9381 67.1609C87.024 67.0321 87.0669 66.8603 87.0669 66.6741C87.0669 66.3735 86.9524 66.1587 86.7233 66.0442C86.4943 65.9297 86.1793 65.8724 85.7927 65.8724C85.6352 65.8724 85.4921 65.8724 85.3346 65.8867C85.1771 65.901 85.0626 65.901 84.9624 65.9153L84.5328 67.7479Z" fill="white"/>
<path d="M90.6891 64.9132H91.949L90.2882 71.8426H89.0284L90.6891 64.9132Z" fill="white"/>
<path d="M98.7925 64.9132L98.5348 65.9727H96.4732L95.0701 71.8426H93.8102L95.2133 65.9727H93.1516L93.395 64.9132H98.7925Z" fill="white"/>
<path d="M103.46 71.5418C103.245 71.6563 102.959 71.7566 102.615 71.8568C102.272 71.957 101.856 71.9999 101.37 71.9999C100.94 71.9999 100.568 71.9284 100.224 71.7995C99.8949 71.6707 99.6086 71.4845 99.3795 71.2411C99.1505 70.9978 98.9643 70.6971 98.8498 70.3535C98.7209 70.0099 98.6637 69.6233 98.6637 69.1795C98.6637 68.6211 98.7639 68.0771 98.95 67.5474C99.1361 67.0176 99.4082 66.5452 99.7661 66.13C100.124 65.7148 100.554 65.3855 101.055 65.1421C101.556 64.8987 102.128 64.7699 102.773 64.7699C103.188 64.7699 103.56 64.8128 103.861 64.913C104.176 64.999 104.448 65.1135 104.677 65.2567L104.204 66.2588C103.99 66.13 103.761 66.0298 103.517 65.9582C103.274 65.8866 103.002 65.858 102.687 65.858C102.272 65.858 101.885 65.9439 101.556 66.1443C101.226 66.3304 100.94 66.5738 100.697 66.8745C100.453 67.1751 100.281 67.5187 100.153 67.9053C100.024 68.2919 99.9665 68.6784 99.9665 69.0793C99.9665 69.6949 100.095 70.1531 100.367 70.4537C100.639 70.7544 101.026 70.8975 101.556 70.8975C101.957 70.8975 102.3 70.8546 102.572 70.7687C102.859 70.6828 103.088 70.5826 103.288 70.4967L103.46 71.5418Z" fill="white"/>
<path d="M107.497 71.9999C107.111 71.9999 106.753 71.9427 106.438 71.8138C106.108 71.685 105.836 71.5132 105.593 71.2841C105.35 71.055 105.178 70.7544 105.049 70.4108C104.92 70.0671 104.849 69.6663 104.849 69.2224C104.849 68.6927 104.935 68.163 105.106 67.6189C105.278 67.0892 105.536 66.6024 105.865 66.1873C106.194 65.7721 106.61 65.4141 107.111 65.1564C107.597 64.8987 108.17 64.7556 108.814 64.7556C109.201 64.7556 109.559 64.8128 109.888 64.9417C110.217 65.0705 110.489 65.2423 110.733 65.4714C110.962 65.7005 111.148 66.0011 111.277 66.3447C111.406 66.6883 111.477 67.0892 111.477 67.533C111.477 68.0628 111.391 68.5925 111.22 69.1365C111.048 69.6663 110.79 70.1531 110.461 70.5682C110.132 70.9978 109.716 71.3414 109.215 71.5991C108.7 71.8568 108.127 71.9999 107.497 71.9999ZM108.686 65.8436C108.299 65.8436 107.955 65.9439 107.655 66.13C107.34 66.3161 107.082 66.5738 106.867 66.8745C106.653 67.1751 106.481 67.533 106.352 67.9196C106.223 68.3062 106.166 68.707 106.166 69.1079C106.166 69.652 106.28 70.0958 106.509 70.4108C106.738 70.74 107.111 70.8975 107.626 70.8975C108.013 70.8975 108.356 70.7973 108.671 70.6112C108.986 70.4251 109.244 70.1674 109.473 69.8667C109.688 69.5661 109.86 69.2081 109.988 68.8216C110.117 68.435 110.175 68.0341 110.175 67.6333C110.175 67.0892 110.06 66.6454 109.817 66.3304C109.573 66.0155 109.201 65.8436 108.686 65.8436Z" fill="white"/>
<path d="M113.883 64.9132H115.142L113.482 71.8426H112.222L113.883 64.9132Z" fill="white"/>
<path d="M120.053 71.8426C119.924 71.456 119.781 71.0409 119.624 70.597C119.466 70.1532 119.294 69.7094 119.108 69.2512C118.922 68.8074 118.736 68.3636 118.536 67.9484C118.335 67.5189 118.135 67.1323 117.949 66.7887L116.732 71.8426H115.486L117.147 64.9132H118.163C118.349 65.2138 118.55 65.5575 118.75 65.944C118.951 66.3306 119.151 66.7314 119.337 67.161C119.523 67.5905 119.71 68.0057 119.896 68.4352C120.082 68.8647 120.225 69.2655 120.368 69.6378L121.485 64.9132H122.73L121.07 71.8426H120.053Z" fill="white"/>
<path d="M131.593 65.715C131.607 66.0729 131.636 66.4451 131.664 66.846C131.693 67.2326 131.736 67.6334 131.764 68.02C131.807 68.4066 131.85 68.7931 131.879 69.1654C131.922 69.5376 131.965 69.8812 131.994 70.2105C132.18 69.8526 132.38 69.466 132.581 69.0508C132.781 68.6213 132.981 68.1918 133.182 67.7337C133.382 67.2755 133.583 66.8174 133.769 66.3449C133.969 65.8725 134.155 65.4 134.327 64.9419H135.673C135.143 66.2304 134.614 67.4473 134.084 68.5927C133.54 69.738 132.981 70.8261 132.38 71.8713H131.149C131.092 71.5133 131.049 71.1554 130.991 70.8118C130.948 70.4682 130.891 70.1103 130.848 69.7524C130.805 69.3944 130.762 69.0365 130.734 68.6643C130.691 68.292 130.662 67.9055 130.633 67.5046C130.218 68.2777 129.803 69.0079 129.402 69.7237C129.001 70.4396 128.572 71.1554 128.114 71.8569H126.897C126.839 71.2843 126.811 70.6973 126.782 70.1246C126.754 69.5519 126.754 68.9649 126.754 68.3636C126.754 67.2755 126.796 66.1302 126.868 64.9275H128.128C128.085 65.5718 128.056 66.2017 128.028 66.8317C127.999 67.4616 127.985 68.1059 127.985 68.7502C127.985 68.9936 127.985 69.2369 127.985 69.4803C127.985 69.7237 127.985 69.9671 127.999 70.2105C128.2 69.8669 128.414 69.509 128.643 69.1367C128.858 68.7645 129.087 68.3779 129.288 67.9914C129.502 67.6048 129.703 67.2183 129.918 66.8317C130.118 66.4451 130.318 66.0729 130.49 65.7293H131.593V65.715Z" fill="white"/>
<path d="M139.839 71.8426C139.825 71.5563 139.796 71.2843 139.782 71.0122C139.753 70.7402 139.725 70.4682 139.71 70.2105H136.89C136.747 70.4682 136.604 70.7402 136.446 71.0122C136.303 71.2843 136.145 71.5563 135.988 71.8569H134.642C135.043 71.1554 135.444 70.4825 135.802 69.8526C136.174 69.2226 136.532 68.6356 136.876 68.063C137.219 67.4903 137.577 66.9605 137.921 66.4451C138.264 65.9297 138.608 65.4286 138.952 64.9275H140.126C140.34 65.9154 140.526 67.0035 140.684 68.1775C140.841 69.3515 140.985 70.5827 141.128 71.8426H139.839ZM139.252 66.2447C138.995 66.6456 138.723 67.0751 138.408 67.5762C138.093 68.063 137.763 68.607 137.42 69.2226H139.596C139.553 68.7502 139.51 68.2634 139.453 67.7623C139.381 67.2612 139.324 66.7458 139.252 66.2447Z" fill="white"/>
<path d="M146.855 70.7831L146.611 71.8426H142.287L143.948 64.9132H145.208L143.805 70.7831H146.855Z" fill="white"/>
<path d="M152.61 70.7831L152.367 71.8426H148.043L149.704 64.9132H150.964L149.56 70.7831H152.61Z" fill="white"/>
<path d="M153.784 71.8426L155.445 64.9132H159.74L159.496 65.9583H156.447L156.032 67.6907H158.738L158.494 68.7215H155.803L155.302 70.7831H158.58L158.337 71.8283H153.784V71.8426Z" fill="white"/>
<path d="M166.412 64.9132L166.154 65.9727H164.092L162.689 71.8426H161.429L162.832 65.9727H160.771L161.014 64.9132H166.412Z" fill="white"/>
<path d="M32.6911 0.80175C32.6625 0.80175 32.6482 0.787433 32.6195 0.787433C30.5006 0.257705 28.3817 0 26.2771 0H26.2628C14.4799 0 3.75654 8.00318 0.77861 19.9722C-2.71473 34.06 5.87545 48.3197 19.9633 51.8131C22.0822 52.3428 24.2155 52.5862 26.3058 52.5862C38.1029 52.5862 48.8263 44.583 51.8043 32.614C55.2976 18.5548 46.7504 4.32372 32.6911 0.80175ZM49.7569 32.1129C47.0797 42.9222 37.4443 50.4673 26.3201 50.4673C24.3586 50.4673 22.3972 50.2239 20.4787 49.7514C14.2079 48.2052 8.92496 44.2967 5.60343 38.7703C2.28189 33.244 1.29402 26.7441 2.85457 20.4733C5.53184 9.67827 15.1672 2.13323 26.2914 2.13323C28.2385 2.13323 30.2 2.37662 32.1328 2.84908H32.1614H32.19C45.061 6.09903 52.9496 19.2134 49.7569 32.1129Z" fill="white"/>
<path d="M31.7748 22.7784C31.016 25.7993 26.4203 24.253 24.917 23.8808L26.2342 18.5978C27.7088 18.9558 32.5193 19.6573 31.7462 22.7784H31.7748ZM30.9588 31.3113C30.1427 34.6042 24.602 32.8146 22.8124 32.3708L24.2727 26.5294C26.0624 26.9876 31.8035 27.8752 30.9588 31.3113ZM37.0005 22.8213C37.473 19.6 35.0248 17.882 31.7176 16.7223L32.8057 12.37L30.1284 11.7114L29.0689 15.9492C28.3674 15.7774 27.6515 15.6056 26.95 15.4481L28.0095 11.153L25.3465 10.4944L24.2584 14.8468L22.569 14.4746L18.9039 13.5583L18.2024 16.393C18.2024 16.393 20.0349 16.8369 20.1208 16.8798C20.7078 16.9943 21.4237 17.6386 21.3521 18.3831L18.3742 30.3091C18.2167 30.8245 17.6726 31.0966 17.1572 30.9391C17.0999 30.9248 15.2244 30.4666 15.2244 30.4666L13.9073 33.4875L17.3577 34.3465L19.2475 34.8333L18.1594 39.2286L20.808 39.8872L21.8961 35.5348C22.612 35.7352 23.3135 35.9071 24.0007 36.0789L22.927 40.4455L25.5756 41.1041L26.6637 36.7088C31.1878 37.5678 34.581 37.2242 36.0127 33.1296C37.1723 29.8367 35.9554 27.9468 33.5788 26.7012C35.3398 26.3147 36.6283 25.2123 37.0005 22.8213Z" fill="white"/>
<path d="M76.0142 18.3114C77.6607 18.3114 79.0781 18.5977 80.2807 19.1847C81.4833 19.7717 82.4712 20.5592 83.2586 21.547C84.0461 22.5349 84.6331 23.7089 85.0053 25.0404C85.3775 26.3718 85.5637 27.8179 85.5637 29.3641C85.5637 31.7264 85.1198 33.9598 84.2465 36.0644C83.3732 38.169 82.1849 40.0016 80.6816 41.5621C79.1783 43.1227 77.3887 44.3539 75.3413 45.2559C73.2797 46.1579 71.0606 46.616 68.6553 46.616C68.3404 46.616 67.8106 46.6017 67.0375 46.5874C66.2644 46.5731 65.3911 46.4872 64.3889 46.3583C63.401 46.2151 62.3415 46.0147 61.2248 45.7427C60.1081 45.4707 59.063 45.0984 58.0608 44.6116L66.9516 7.24438L74.9118 6.01312L71.7192 19.2706C72.4064 18.9557 73.0936 18.7266 73.7808 18.5548C74.4966 18.3973 75.2268 18.3114 76.0142 18.3114ZM69.3425 40.3022C70.5452 40.3022 71.6762 40.0159 72.7357 39.4289C73.7951 38.8419 74.7114 38.0688 75.4845 37.0952C76.2576 36.1217 76.859 35.0193 77.3028 33.788C77.7466 32.5568 77.9757 31.2682 77.9757 29.9368C77.9757 28.2903 77.7036 27.0018 77.1596 26.0855C76.6156 25.1549 75.5991 24.6968 74.1244 24.6968C73.6376 24.6968 73.022 24.7827 72.2489 24.9545C71.4758 25.1263 70.7886 25.4842 70.1729 26.0282L66.7798 40.1161C66.9802 40.1448 67.1664 40.1877 67.3239 40.2163C67.4813 40.245 67.6388 40.2736 67.8106 40.2879C67.9824 40.3022 68.1829 40.3166 68.4263 40.3166C68.6553 40.3022 68.956 40.3022 69.3425 40.3022Z" fill="white"/>
<path d="M97.8047 46.4156C95.3708 46.4156 93.4666 46.1006 92.0779 45.4707C90.6891 44.8407 89.7013 43.9674 89.1 42.8793C88.4986 41.7769 88.2123 40.5313 88.2266 39.0996C88.2409 37.6823 88.4414 36.1647 88.8136 34.5468L95.3421 7.25872L103.302 6.02747L96.1582 35.6206C96.0151 36.2363 95.9435 36.8089 95.9291 37.31C95.9148 37.8254 96.0007 38.2836 96.2155 38.6701C96.4159 39.071 96.7738 39.386 97.2749 39.6151C97.776 39.8584 98.4632 40.0159 99.3509 40.0732L97.8047 46.4156Z" fill="white"/>
<path d="M109.373 45.9002H101.77L108.199 18.8697H115.858L109.373 45.9002Z" fill="white"/>
<path d="M121.499 20.1011C122.086 19.9293 122.73 19.7288 123.432 19.5141C124.134 19.285 124.921 19.0846 125.794 18.8985C126.668 18.7123 127.641 18.5549 128.729 18.4403C129.803 18.3258 131.034 18.2542 132.409 18.2542C136.446 18.2542 139.224 19.4139 140.727 21.7475C142.23 24.0812 142.488 27.2596 141.5 31.3113L138.007 45.9002H130.347L133.74 31.6119C133.941 30.7243 134.112 29.8509 134.227 29.0206C134.342 28.1759 134.342 27.4457 134.198 26.8157C134.055 26.1858 133.74 25.6704 133.253 25.2695C132.752 24.8829 131.994 24.6825 130.963 24.6825C129.975 24.6825 128.958 24.7827 127.928 24.9975L122.945 45.9146H115.286L121.499 20.1011Z" fill="white"/>
<path d="M154.128 28.6339C156.189 26.9875 158.122 25.3124 159.94 23.5943C161.759 21.8763 163.319 20.3014 164.622 18.8697H173.241C171.322 20.9887 169.332 23.0789 167.256 25.1119C165.18 27.1449 162.804 29.3211 160.141 31.6118C160.857 32.4995 161.587 33.5303 162.331 34.69C163.061 35.8497 163.777 37.0666 164.436 38.3408C165.109 39.615 165.724 40.8892 166.283 42.1921C166.841 43.4949 167.313 44.7262 167.7 45.8858H159.167C158.852 44.9982 158.48 44.0246 158.007 42.9509C157.549 41.8914 157.034 40.832 156.461 39.7868C155.903 38.7417 155.302 37.7252 154.686 36.723C154.07 35.7351 153.455 34.8332 152.839 34.0457L149.961 45.8715H142.359L151.608 7.23005L159.568 5.99879L154.128 28.6339Z" fill="white"/>
<path d="M118.536 10.7091C118.536 11.4249 118.392 12.0835 118.135 12.6991C117.863 13.3147 117.49 13.8588 117.032 14.3169C116.56 14.7751 116.016 15.133 115.386 15.405C114.756 15.677 114.097 15.8059 113.382 15.8059C112.666 15.8059 112.007 15.677 111.377 15.405C110.747 15.133 110.203 14.7751 109.745 14.3169C109.287 13.8588 108.929 13.3147 108.657 12.6991C108.385 12.0835 108.242 11.4249 108.242 10.7091C108.242 10.0218 108.371 9.36326 108.643 8.73331C108.915 8.10336 109.273 7.55932 109.731 7.10118C110.189 6.64303 110.733 6.28511 111.363 6.01309C111.993 5.74107 112.651 5.61221 113.367 5.61221C114.083 5.61221 114.742 5.74107 115.372 6.01309C116.002 6.28511 116.546 6.64303 117.018 7.10118C117.49 7.55932 117.848 8.10336 118.12 8.73331C118.407 9.36326 118.536 10.0218 118.536 10.7091Z" fill="white"/>
</g>
<defs>
<clipPath id="clip0_266_49">
<rect width="173" height="77" fill="white"/>
</clipPath>
</defs>
</svg>
